Coordinates
version=1
nRows=10
nColumns=34
inDegrees=yes

Units are S.I. units (second, meters, Newtons, ...)
If the header above contains a line with 'inDegrees', this indicates whether rotational values are in degrees (yes) or radians (no).

endheader
time	pelvis_tilt	pelvis_list	pelvis_rotation	pelvis_tx	pelvis_ty	pelvis_tz	hip_flexion_r	hip_adduction_r	hip_rotation_r	knee_angle_r	ankle_angle_r	subtalar_angle_r	mtp_angle_r	hip_flexion_l	hip_adduction_l	hip_rotation_l	knee_angle_l	ankle_angle_l	subtalar_angle_l	mtp_angle_l	lumbar_extension	lumbar_bending	lumbar_rotation	arm_flex_r	arm_add_r	arm_rot_r	elbow_flex_r	pro_sup_r	arm_flex_l	arm_add_l	arm_rot_l	elbow_flex_l	pro_sup_l
      2.71666670	      3.46195582	     -1.81356920	    -69.23005003	      0.13736598	      1.09843411	      0.14906989	     -8.84424814	     -6.79054234	     -2.79042010	      3.74271704	      4.89267784	      1.00336600	      0.00000000	     -7.18104398	     -3.10328571	     -2.27319175	      2.18727068	      4.39064667	      1.86906019	      0.00000000	    -10.67430582	      1.39104755	     -3.25194052	     -0.43601742	    -17.16140671	     24.07994518	     85.90106980	    119.74817918	     11.18399132	    -21.30737716	     32.69059064	     86.45763007	    119.74817918
      2.73333330	      3.23661919	     -1.89208669	    -69.01596682	      0.14085326	      1.09849000	      0.14447331	     -8.20998387	     -6.76222325	     -2.92838107	      4.52821265	      4.92652161	      1.05110172	      0.00000000	     -6.90675831	     -3.02280631	     -2.52898534	      2.17449807	      4.45826145	      1.66971273	      0.00000000	    -11.18543208	      1.63222585	     -2.12804359	      0.82319523	    -16.85961761	     24.43228035	     86.88982027	    119.74817918	      8.76033929	    -21.34677062	     31.57705424	     84.93579752	    119.74817918
      2.75000000	      2.87381237	     -1.44282639	    -68.85789234	      0.14445054	      1.09795397	      0.13853950	     -6.89433834	     -6.86784499	     -2.92801950	      5.39412537	      5.22422187	      1.34165345	      0.00000000	     -5.84028578	     -2.98537212	     -2.89310725	      2.57227968	      4.54683124	      1.43043272	      0.00000000	    -11.50387290	      1.90904438	     -0.94793102	      1.73583275	    -16.72913701	     24.33350574	     87.55047468	    119.74817918	      5.74925005	    -21.54324907	     29.99489427	     84.65664036	    119.74817918
      2.76666670	      2.51832966	     -1.16802981	    -68.47268174	      0.15076322	      1.09785639	      0.13098115	     -5.82817381	     -7.08072623	     -3.15446651	      6.18647394	      4.95025933	      1.33533426	      0.00000000	     -4.97230575	     -2.87553372	     -3.03668499	      2.86706318	      4.57172484	      1.25373229	      0.00000000	    -12.41402393	      2.33214884	     -0.01946460	      1.80882457	    -16.38155149	     22.79911910	     88.17158336	    119.74817918	      3.16332515	    -21.82487403	     28.08031512	     84.65806436	    119.74817918
      2.78333330	      2.13050941	     -1.19870274	    -67.95370823	      0.15780847	      1.09724241	      0.12732730	     -4.67570266	     -7.14572854	     -3.32813045	      8.13170117	      5.17439197	      1.07848128	      0.00000000	     -4.64603435	     -2.83816866	     -2.99690439	      2.96957451	      4.94749415	      1.07841477	      0.00000000	    -12.79355553	      2.69709079	      1.28672073	      2.28489995	    -16.17353621	     21.31541334	     87.51766324	    119.74817918	      0.88280677	    -22.12742505	     25.60468071	     83.96624500	    119.74817918
      2.80000000	      1.81319537	     -0.18910257	    -67.57708167	      0.16716653	      1.09490504	      0.12315603	     -1.54858514	     -7.80359723	     -3.27156417	     12.14789223	      6.18944489	      0.84270583	      0.00000000	     -3.03506299	     -2.22284302	     -3.45827594	      3.54656474	      5.15418350	      0.43047530	      0.00000000	    -12.33437550	      2.90184636	      2.14638121	      2.91676695	    -16.46364730	     20.63495466	     87.18022257	    119.74817918	     -2.31197397	    -22.83277644	     22.39502765	     84.80353926	    119.74817918
      2.81666670	      1.62049459	      0.18623230	    -66.60865341	      0.17747779	      1.09366913	      0.12206344	      0.94555839	     -8.34554253	     -3.49457238	     17.17298737	      6.92263591	     -0.23511566	      0.00000000	     -2.18821312	     -1.80014206	     -3.42685832	      4.03880142	      5.42962060	      0.18051730	      0.00000000	    -12.48484288	      2.93814654	      3.05518558	      3.63420074	    -16.45887352	     18.59244372	     86.60368805	    119.74817918	     -4.02214400	    -23.73592134	     20.15437207	     85.05180216	    119.74817918
      2.83333330	      1.62160717	      0.85008177	    -65.48482034	      0.18759860	      1.09238289	      0.11558117	      4.13987121	     -8.98166444	     -3.41854106	     24.45485246	      7.26585784	     -2.09991181	      0.00000000	     -1.15786890	     -1.02012813	     -3.45104250	      4.39758240	      5.48953895	      0.05578371	      0.00000000	    -12.52748917	      2.60001968	      3.92348968	      5.22287442	    -16.78503378	     16.98576928	     86.11804994	    119.74817918	     -5.00693246	    -24.91748463	     18.15911187	     85.78684917	    119.74817918
      2.85000000	      1.67722720	      1.50608744	    -64.59592387	      0.19667531	      1.09115673	      0.10882147	      6.84771743	     -9.41273791	     -3.22009199	     32.60913839	      6.77647303	     -4.18159799	      0.00000000	     -0.41249297	     -0.21441785	     -3.76070715	      4.43401059	      5.32024680	      0.09325355	      0.00000000	    -12.42494705	      2.26027423	      4.74675802	      6.71676555	    -16.94843426	     15.64541592	     86.01126850	    119.74817918	     -6.23320354	    -26.08056774	     15.50872738	     86.70885236	    119.74817918
      2.86666670	      1.85005299	      1.91156660	    -63.93048112	      0.20233255	      1.09009088	      0.10165589	      8.34289217	     -9.76048143	     -3.30473069	     40.07402294	      5.65740284	     -5.71303956	      0.00000000	     -0.15475653	      0.51145106	     -4.28526675	      4.16451059	      4.97276736	      0.38889397	      0.00000000	    -12.15479256	      1.81201193	      5.52522990	      8.39593649	    -17.17930136	     14.86404274	     85.45194559	    119.74817918	     -6.99995232	    -26.78101687	     13.54857934	     87.24522555	    119.74817918
